<svg width="720" height="192" xmlns="http://www.w3.org/2000/svg" xmlns:xlink="http://www.w3.org/1999/xlink" overflow="hidden"><g><rect x="0" y="0" width="720" height="192" fill="#FFFFFF"/><path d="M151.5 67.5001 151.5 62.0001 127.5 62.0001 127.5 51.0001 151.5 51.0001 151.5 45.5001 162.5 56.5001Z" stroke="#000000" stroke-width="1.33333" stroke-miterlimit="8" fill="#FFFFFF" fill-rule="evenodd"/><path d="M25.5001 39.1669C25.5001 34.3804 29.3803 30.5001 34.1669 30.5001L109.833 30.5001C114.62 30.5001 118.5 34.3804 118.5 39.1669L118.5 73.8332C118.5 78.6198 114.62 82.5 109.833 82.5L34.1669 82.5C29.3803 82.5 25.5001 78.6198 25.5001 73.8332Z" stroke="#000000" stroke-width="1.33333" stroke-miterlimit="8" fill="#FFFFFF" fill-rule="evenodd"/><text font-family="Calibri,Calibri_MSFontService,sans-serif" font-weight="400" font-size="14" transform="translate(46.7297 53)">GenBank</text><text font-family="Calibri,Calibri_MSFontService,sans-serif" font-weight="400" font-size="14" transform="translate(43.8964 69)">download</text><path d="M171.5 39.1669C171.5 34.3803 175.38 30.5001 180.167 30.5001L254.833 30.5001C259.62 30.5001 263.5 34.3803 263.5 39.1669L263.5 73.8332C263.5 78.6198 259.62 82.5001 254.833 82.5001L180.167 82.5001C175.38 82.5001 171.5 78.6198 171.5 73.8332Z" stroke="#000000" stroke-width="1.33333" stroke-miterlimit="8" fill="#FFFFFF" fill-rule="evenodd"/><text font-family="Calibri,Calibri_MSFontService,sans-serif" font-weight="400" font-size="14" transform="translate(185.995 44)">inital filters</text><text font-family="Calibri,Calibri_MSFontService,sans-serif" font-weight="400" font-size="14" transform="translate(195.329 60)">and xml</text><text font-family="Calibri,Calibri_MSFontService,sans-serif" font-weight="400" font-size="14" transform="translate(187.829 76)">processing</text><path d="M296.5 67.5001 296.5 62 273.5 62 273.5 51 296.5 51 296.5 45.5001 307.5 56.5001Z" stroke="#000000" stroke-width="1.33333" stroke-miterlimit="8" fill="#FFFFFF" fill-rule="evenodd"/><path d="M317.5 39.1669C317.5 34.3803 321.38 30.5001 326.167 30.5001L400.833 30.5001C405.62 30.5001 409.5 34.3803 409.5 39.1669L409.5 73.8332C409.5 78.6198 405.62 82.5001 400.833 82.5001L326.167 82.5001C321.38 82.5001 317.5 78.6198 317.5 73.8332Z" stroke="#000000" stroke-width="1.33333" stroke-miterlimit="8" fill="#FFFFFF" fill-rule="evenodd"/><text font-family="Calibri,Calibri_MSFontService,sans-serif" font-weight="400" font-size="14" transform="translate(351.924 53)">ITSx</text><text font-family="Calibri,Calibri_MSFontService,sans-serif" font-weight="400" font-size="14" transform="translate(332.344 69)">annotation</text><path d="M442.5 67.5001 442.5 62.0001 418.5 62.0001 418.5 51.0001 442.5 51.0001 442.5 45.5001 453.5 56.5001Z" stroke="#000000" stroke-width="1.33333" stroke-miterlimit="8" fill="#FFFFFF" fill-rule="evenodd"/><path d="M462.5 39.1669C462.5 34.3804 466.38 30.5001 471.167 30.5001L546.833 30.5001C551.62 30.5001 555.5 34.3804 555.5 39.1669L555.5 73.8332C555.5 78.6198 551.62 82.5 546.833 82.5L471.167 82.5C466.38 82.5 462.5 78.6198 462.5 73.8332Z" stroke="#000000" stroke-width="1.33333" stroke-miterlimit="8" fill="#FFFFFF" fill-rule="evenodd"/><text font-family="Calibri,Calibri_MSFontService,sans-serif" font-weight="400" font-size="14" transform="translate(478.026 53)">rescue ITSx</text><text font-family="Calibri,Calibri_MSFontService,sans-serif" font-weight="400" font-size="14" transform="translate(488.106 69)">failures</text><path d="M588.5 67.5001 588.5 62.0001 564.5 62.0001 564.5 51.0001 588.5 51.0001 588.5 45.5001 599.5 56.5001Z" stroke="#000000" stroke-width="1.33333" stroke-miterlimit="8" fill="#FFFFFF" fill-rule="evenodd"/><path d="M608.5 39.1669C608.5 34.3804 612.38 30.5001 617.167 30.5001L692.833 30.5001C697.62 30.5001 701.5 34.3804 701.5 39.1669L701.5 73.8332C701.5 78.6198 697.62 82.5 692.833 82.5L617.167 82.5C612.38 82.5 608.5 78.6198 608.5 73.8332Z" stroke="#000000" stroke-width="1.33333" stroke-miterlimit="8" fill="#FFFFFF" fill-rule="evenodd"/><text font-family="Calibri,Calibri_MSFontService,sans-serif" font-weight="400" font-size="14" transform="translate(641.542 53)">GBIF</text><text font-family="Calibri,Calibri_MSFontService,sans-serif" font-weight="400" font-size="14" transform="translate(626.542 69)">taxonomy</text><path d="M643.5 98.0001 649.25 98.0001 649.25 86.5001 660.75 86.5001 660.75 98.0001 666.5 98.0001 655 109.5Z" stroke="#000000" stroke-width="1.33333" stroke-miterlimit="8" fill="#FFFFFF" fill-rule="evenodd"/><path d="M608.5 123C608.5 118.306 612.306 114.5 617 114.5L693 114.5C697.694 114.5 701.5 118.306 701.5 123L701.5 157C701.5 161.694 697.694 165.5 693 165.5L617 165.5C612.306 165.5 608.5 161.694 608.5 157Z" stroke="#000000" stroke-width="1.33333" stroke-miterlimit="8" fill="#FFFFFF" fill-rule="evenodd"/><text font-family="Calibri,Calibri_MSFontService,sans-serif" font-weight="400" font-size="14" transform="translate(633.125 136)">remove</text><text font-family="Calibri,Calibri_MSFontService,sans-serif" font-weight="400" font-size="14" transform="translate(640.212 152)">fungi</text><path d="M576 128.5 576 134.25 599.5 134.25 599.5 145.75 576 145.75 576 151.5 564.5 140Z" stroke="#000000" stroke-width="1.33333" stroke-miterlimit="8" fill="#FFFFFF" fill-rule="evenodd"/><path d="M462.5 123C462.5 118.306 466.306 114.5 471 114.5L547 114.5C551.694 114.5 555.5 118.306 555.5 123L555.5 157C555.5 161.694 551.694 165.5 547 165.5L471 165.5C466.306 165.5 462.5 161.694 462.5 157Z" stroke="#000000" stroke-width="1.33333" stroke-miterlimit="8" fill="#FFFFFF" fill-rule="evenodd"/><text font-family="Calibri,Calibri_MSFontService,sans-serif" font-weight="400" font-size="14" transform="translate(487.026 144)">spike</text><text font-family="Calibri,Calibri_MSFontService,sans-serif" font-weight="400" font-size="14" transform="translate(515.526 144)">-</text><text font-family="Calibri,Calibri_MSFontService,sans-serif" font-weight="400" font-size="14" transform="translate(519.693 144)">in</text><path d="M430 128.5 430 134.25 453.5 134.25 453.5 145.75 430 145.75 430 151.5 418.5 140Z" stroke="#000000" stroke-width="1.33333" stroke-miterlimit="8" fill="#FFFFFF" fill-rule="evenodd"/><path d="M317.5 123C317.5 118.306 321.306 114.5 326 114.5L401 114.5C405.694 114.5 409.5 118.306 409.5 123L409.5 157C409.5 161.694 405.694 165.5 401 165.5L326 165.5C321.306 165.5 317.5 161.694 317.5 157Z" stroke="#000000" stroke-width="1.33333" stroke-miterlimit="8" fill="#FFFFFF" fill-rule="evenodd"/><text font-family="Calibri,Calibri_MSFontService,sans-serif" font-weight="400" font-size="14" transform="translate(339.761 136)">distance</text><text font-family="Calibri,Calibri_MSFontService,sans-serif" font-weight="400" font-size="14" transform="translate(329.094 152)">based filters</text><path d="M285 128.5 285 134.25 307.5 134.25 307.5 145.75 285 145.75 285 151.5 273.5 140Z" stroke="#000000" stroke-width="1.33333" stroke-miterlimit="8" fill="#FFFFFF" fill-rule="evenodd"/><path d="M171.5 123C171.5 118.306 175.306 114.5 180 114.5L255 114.5C259.694 114.5 263.5 118.306 263.5 123L263.5 157C263.5 161.694 259.694 165.5 255 165.5L180 165.5C175.306 165.5 171.5 161.694 171.5 157Z" stroke="#000000" stroke-width="1.33333" stroke-miterlimit="8" fill="#FFFFFF" fill-rule="evenodd"/><text font-family="Calibri,Calibri_MSFontService,sans-serif" font-weight="400" font-size="14" transform="translate(192.579 136)">add GBIF</text><text font-family="Calibri,Calibri_MSFontService,sans-serif" font-weight="400" font-size="14" transform="translate(183.912 152)">occurrences</text><path d="M139 128.5 139 134.25 162.5 134.25 162.5 145.75 139 145.75 139 151.5 127.5 140Z" stroke="#000000" stroke-width="1.33333" stroke-miterlimit="8" fill="#FFFFFF" fill-rule="evenodd"/><path d="M25.5001 123C25.5001 118.306 29.3057 114.5 34.0002 114.5L110 114.5C114.694 114.5 118.5 118.306 118.5 123L118.5 157C118.5 161.694 114.694 165.5 110 165.5L34.0002 165.5C29.3057 165.5 25.5001 161.694 25.5001 157Z" stroke="#000000" stroke-width="1.33333" stroke-miterlimit="8" fill="#FFFFFF" fill-rule="evenodd"/><text font-family="Calibri,Calibri_MSFontService,sans-serif" font-weight="400" font-size="14" transform="translate(39.6464 144)">data export</text></g></svg>